<svg xmlns="http://www.w3.org/2000/svg" width="68" height="68" fill="none" viewBox="0 0 68 68">
  <path fill="#1D1D1B" d="M35.071 55.324c0-.116.088-.207.2-.207a.2.2 0 0 1 .2.207.202.202 0 0 1-.2.208.202.202 0 0 1-.2-.208Z"/>
  <path fill="#000" d="M14.764 31.16c-.168-6.023 1.21-12.012 1.41-17.537.304-11.124-7.033-4.198-10.614 1.808-9.34 13.937-6.425 33.1 5.103 44.016l5.359-20.705a22.42 22.42 0 0 1-1.258-7.582Zm49.826 1.634v-.058c.049-3.194-1.313-15.645-6.32-11.025-.793.788-1.434 1.842-2.019 2.904-2.755 5.217-4.43 11.406-7.826 16.823-1.145 1.908-2.547 3.633-4.182 5.085L38.876 67.27c15.717-3.476 26.355-19.03 25.707-34.476"/>
  <path fill="#458ECD" d="M20.268 45.784c-1.89-1.99-3.317-4.413-4.246-7.042l-5.36 20.705a31.46 31.46 0 0 0 5.056 3.89l4.542-17.553h.008Z"/>
  <path fill="#F4E600" d="M29.696 50.87a17.137 17.137 0 0 1-4.365-1.402l-4.262 16.474a31.114 31.114 0 0 0 5.671 1.527l4.254-16.442a17.943 17.943 0 0 1-1.298-.166"/>
  <path fill="#E52521" d="m37.162 50.48-4.526 17.487c.48 0 .97-.009 1.466-.034 1.642-.1 3.236-.323 4.782-.663l5.367-20.747c-2.042 1.825-4.437 3.21-7.089 3.957Z"/>
  <path fill="#86BC26" d="M20.332 45.85a13933.69 13933.69 0 0 0-4.534 17.53 30.705 30.705 0 0 0 5.19 2.538c1.419-5.492 2.844-10.992 4.262-16.492a17.16 17.16 0 0 1-4.926-3.575"/>
  <path fill="#86BC26" d="m20.268 45.785-4.542 17.553s.048.033.072.041c1.514-5.84 3.028-11.688 4.534-17.528l-.064-.066Zm4.99 3.649c-1.426 5.492-2.844 10.992-4.27 16.492.024.008.056.016.08.033l4.262-16.475s-.048-.025-.072-.041"/>
  <path fill="#F0801A" d="m31.074 51.044-4.254 16.45c1.835.307 3.741.472 5.728.48l4.518-17.461a16.814 16.814 0 0 1-5.992.539m-.08-.017L26.74 67.477s.056.008.08.017l4.254-16.45c-.024 0-.056 0-.08-.008Z"/>
  <path fill="#F0801A" d="M32.548 67.967h.088l4.526-17.487-.096.025-4.518 17.462Z"/>
  <path fill="#000" d="M41.832 31.516c-.048-4.006-2.796-7.963-6.625-8.959-8.018-2.099-14.13 7.781-9.965 14.808 4.999 8.42 16.702 3.75 16.59-5.849Zm-8.507-.365c-1.57-2.646.729-6.362 3.749-5.574 1.442.373 2.475 1.858 2.491 3.368.04 3.608-4.358 5.367-6.24 2.198M11.568 5.502c.673 1.792.921 3.351.56 3.5-.36.15-1.201-1.186-1.874-2.97-.673-1.783-.921-3.35-.56-3.5.36-.15 1.2 1.186 1.874 2.97Zm2.499-1.992c0 1.917-.304 3.477-.688 3.477-.385 0-.705-1.552-.713-3.468 0-1.916.304-3.476.688-3.476.393 0 .713 1.551.713 3.468Zm5.6 1.535c-1.202 1.46-2.42 2.43-2.716 2.165-.296-.265.44-1.659 1.65-3.11 1.21-1.46 2.42-2.423 2.716-2.165.296.265-.44 1.65-1.65 3.11Zm-1.242 5.575c-1.835-.257-3.285-.788-3.229-1.186.049-.398 1.579-.515 3.421-.257 1.834.257 3.284.788 3.228 1.186-.048.398-1.578.514-3.42.257Z"/>
  <path fill="#000" d="M14.772 12.163a3.348 3.348 0 0 1-3.549-3.152c-.104-1.859 1.306-3.46 3.149-3.576a3.348 3.348 0 0 1 3.548 3.153 3.38 3.38 0 0 1-3.148 3.575Z"/>
  <path fill="#000" d="M17.063 3.52c-.649 1.8-1.466 3.143-1.826 3.002-.36-.14-.137-1.709.512-3.509.641-1.8 1.458-3.144 1.819-3.003.36.141.136 1.709-.505 3.51Zm47.84 15.462c-1.45 1.203-2.419 2.43-2.179 2.737.24.316 1.61-.406 3.06-1.6 1.45-1.203 2.42-2.431 2.18-2.738-.24-.315-1.61.406-3.06 1.6Zm-1.201-3.02c-.93 1.66-1.418 3.17-1.082 3.368.337.2 1.362-.978 2.3-2.638.928-1.659 1.417-3.168 1.08-3.368-.336-.199-1.361.98-2.298 2.638Zm-5.592-1.576c.336 1.883.921 3.352 1.306 3.285.384-.074.416-1.659.072-3.55-.337-1.883-.922-3.352-1.306-3.285-.385.074-.417 1.667-.072 3.55Zm-1.61 5.475c1.714.73 3.22 1.02 3.372.647.145-.373-1.121-1.269-2.836-1.99-1.714-.73-3.22-1.02-3.372-.648-.144.374 1.121 1.27 2.836 1.991Z"/>
  <path fill="#000" d="M58.911 23.088c1.546 1.062 3.605.655 4.59-.896.994-1.551.545-3.666-1.001-4.728-1.546-1.062-3.605-.656-4.59.896-.994 1.55-.537 3.666 1.009 4.728"/>
  <path fill="#000" d="M61.106 14.42c-.312 1.89-.248 3.475.128 3.55.385.066.945-1.41 1.258-3.302.312-1.891.248-3.476-.136-3.55-.385-.067-.946 1.41-1.258 3.301"/>
</svg>
